<mxfile host="65bd71144e">
    <diagram id="Eb6qBv22pOXlGw6nTdhE" name="Page-1">
        <mxGraphModel dx="771" dy="1346" grid="1" gridSize="10" guides="1" tooltips="1" connect="1" arrows="1" fold="1" page="1" pageScale="1" pageWidth="850" pageHeight="1100" background="#ffffff" math="0" shadow="0">
            <root>
                <mxCell id="0"/>
                <mxCell id="1" parent="0"/>
                <mxCell id="2" value="ブラウザ①" style="shape=umlLifeline;perimeter=lifelinePerimeter;whiteSpace=wrap;html=1;container=1;collapsible=0;recursiveResize=0;outlineConnect=0;" parent="1" vertex="1">
                    <mxGeometry x="140" y="120" width="110" height="840" as="geometry"/>
                </mxCell>
                <mxCell id="3" value="STUN(NTT)" style="shape=umlLifeline;perimeter=lifelinePerimeter;whiteSpace=wrap;html=1;container=1;collapsible=0;recursiveResize=0;outlineConnect=0;lifelineDashed=0;" parent="1" vertex="1">
                    <mxGeometry x="681" y="120" width="80" height="840" as="geometry"/>
                </mxCell>
                <mxCell id="6" value="ブラウザ②" style="shape=umlLifeline;perimeter=lifelinePerimeter;whiteSpace=wrap;html=1;container=1;collapsible=0;recursiveResize=0;outlineConnect=0;" parent="1" vertex="1">
                    <mxGeometry x="317" y="120" width="110" height="840" as="geometry"/>
                </mxCell>
                <mxCell id="7" value="WebSocket&lt;br&gt;Server" style="shape=umlLifeline;perimeter=lifelinePerimeter;whiteSpace=wrap;html=1;container=1;collapsible=0;recursiveResize=0;outlineConnect=0;lifelineDashed=0;" parent="1" vertex="1">
                    <mxGeometry x="511" y="120" width="90" height="840" as="geometry"/>
                </mxCell>
                <mxCell id="22" value="&lt;font style=&quot;font-size: 14px&quot;&gt;会議参加&lt;/font&gt;" style="html=1;verticalAlign=bottom;startArrow=oval;startFill=1;endArrow=block;startSize=8;" parent="1" source="2" target="7" edge="1">
                    <mxGeometry x="-0.5263" width="60" relative="1" as="geometry">
                        <mxPoint x="405" y="250" as="sourcePoint"/>
                        <mxPoint x="525" y="250" as="targetPoint"/>
                        <Array as="points">
                            <mxPoint x="340" y="250"/>
                        </Array>
                        <mxPoint as="offset"/>
                    </mxGeometry>
                </mxCell>
                <mxCell id="28" value="&lt;font style=&quot;font-size: 14px&quot;&gt;会議参加者情報&lt;/font&gt;" style="html=1;verticalAlign=bottom;startArrow=oval;startFill=1;endArrow=block;startSize=8;" parent="1" source="7" target="6" edge="1">
                    <mxGeometry x="-0.0256" width="60" relative="1" as="geometry">
                        <mxPoint x="525" y="400" as="sourcePoint"/>
                        <mxPoint x="380" y="400" as="targetPoint"/>
                        <Array as="points">
                            <mxPoint x="430" y="350"/>
                        </Array>
                        <mxPoint x="1" as="offset"/>
                    </mxGeometry>
                </mxCell>
                <mxCell id="29" value="&lt;font style=&quot;font-size: 14px&quot;&gt;会議参加&lt;/font&gt;" style="html=1;verticalAlign=bottom;startArrow=oval;startFill=1;endArrow=block;startSize=8;" parent="1" edge="1">
                    <mxGeometry x="-0.0883" width="60" relative="1" as="geometry">
                        <mxPoint x="372" y="294" as="sourcePoint"/>
                        <mxPoint x="555.5" y="294" as="targetPoint"/>
                        <Array as="points">
                            <mxPoint x="420" y="294"/>
                        </Array>
                        <mxPoint as="offset"/>
                    </mxGeometry>
                </mxCell>
                <mxCell id="30" value="&lt;span style=&quot;font-size: 14px&quot;&gt;SDP②&lt;/span&gt;" style="html=1;verticalAlign=bottom;startArrow=oval;startFill=1;endArrow=block;startSize=8;" parent="1" source="6" target="7" edge="1">
                    <mxGeometry x="-0.038" width="60" relative="1" as="geometry">
                        <mxPoint x="390" y="440" as="sourcePoint"/>
                        <mxPoint x="510" y="440" as="targetPoint"/>
                        <Array as="points">
                            <mxPoint x="490" y="400"/>
                        </Array>
                        <mxPoint as="offset"/>
                    </mxGeometry>
                </mxCell>
                <mxCell id="32" value="&lt;font style=&quot;font-size: 14px&quot;&gt;SDP②&lt;/font&gt;" style="html=1;verticalAlign=bottom;startArrow=oval;startFill=1;endArrow=block;startSize=8;" parent="1" edge="1">
                    <mxGeometry x="0.5263" width="60" relative="1" as="geometry">
                        <mxPoint x="555.5" y="534" as="sourcePoint"/>
                        <mxPoint x="194.5" y="534" as="targetPoint"/>
                        <Array as="points">
                            <mxPoint x="310" y="534"/>
                            <mxPoint x="260" y="534"/>
                        </Array>
                        <mxPoint as="offset"/>
                    </mxGeometry>
                </mxCell>
                <mxCell id="33" value="&lt;font style=&quot;font-size: 14px&quot;&gt;SDP①&lt;/font&gt;" style="html=1;verticalAlign=bottom;startArrow=oval;startFill=1;endArrow=block;startSize=8;" parent="1" edge="1">
                    <mxGeometry x="-0.527" width="60" relative="1" as="geometry">
                        <mxPoint x="191.25" y="564" as="sourcePoint"/>
                        <mxPoint x="552.75" y="564" as="targetPoint"/>
                        <Array as="points">
                            <mxPoint x="456.75" y="564"/>
                        </Array>
                        <mxPoint x="1" as="offset"/>
                    </mxGeometry>
                </mxCell>
                <mxCell id="35" value="&lt;font style=&quot;font-size: 14px&quot;&gt;Candidate②要求&lt;/font&gt;" style="html=1;verticalAlign=bottom;startArrow=oval;startFill=1;endArrow=block;startSize=8;" parent="1" edge="1">
                    <mxGeometry x="-0.4928" width="60" relative="1" as="geometry">
                        <mxPoint x="371.5" y="451" as="sourcePoint"/>
                        <mxPoint x="720.5" y="451" as="targetPoint"/>
                        <mxPoint as="offset"/>
                    </mxGeometry>
                </mxCell>
                <mxCell id="36" value="&lt;font style=&quot;font-size: 14px&quot;&gt;Cnadidate②&lt;/font&gt;" style="html=1;verticalAlign=bottom;startArrow=oval;startFill=1;endArrow=block;startSize=8;" parent="1" edge="1">
                    <mxGeometry x="0.4928" width="60" relative="1" as="geometry">
                        <mxPoint x="720.5" y="490" as="sourcePoint"/>
                        <mxPoint x="371.5" y="490" as="targetPoint"/>
                        <Array as="points">
                            <mxPoint x="620" y="490"/>
                        </Array>
                        <mxPoint as="offset"/>
                    </mxGeometry>
                </mxCell>
                <mxCell id="37" value="&lt;font style=&quot;font-size: 14px&quot;&gt;Candidate①要求&lt;br&gt;&lt;/font&gt;" style="html=1;verticalAlign=bottom;startArrow=oval;startFill=1;endArrow=block;startSize=8;" parent="1" edge="1">
                    <mxGeometry x="-0.6749" width="60" relative="1" as="geometry">
                        <mxPoint x="194.5" y="639" as="sourcePoint"/>
                        <mxPoint x="720.5" y="639" as="targetPoint"/>
                        <Array as="points">
                            <mxPoint x="610" y="639"/>
                        </Array>
                        <mxPoint as="offset"/>
                    </mxGeometry>
                </mxCell>
                <mxCell id="38" value="" style="endArrow=none;dashed=1;html=1;" parent="1" edge="1">
                    <mxGeometry width="50" height="50" relative="1" as="geometry">
                        <mxPoint x="130" y="710" as="sourcePoint"/>
                        <mxPoint x="800" y="710" as="targetPoint"/>
                    </mxGeometry>
                </mxCell>
                <mxCell id="39" value="" style="endArrow=none;dashed=1;html=1;" parent="1" edge="1">
                    <mxGeometry width="50" height="50" relative="1" as="geometry">
                        <mxPoint x="130" y="882" as="sourcePoint"/>
                        <mxPoint x="800" y="882" as="targetPoint"/>
                    </mxGeometry>
                </mxCell>
                <mxCell id="42" value="&lt;font style=&quot;font-size: 14px&quot;&gt;Cnadidate①&lt;/font&gt;" style="html=1;verticalAlign=bottom;startArrow=oval;startFill=1;endArrow=block;startSize=8;" parent="1" edge="1">
                    <mxGeometry x="0.6749" width="60" relative="1" as="geometry">
                        <mxPoint x="720.5" y="680" as="sourcePoint"/>
                        <mxPoint x="194.5" y="680" as="targetPoint"/>
                        <Array as="points">
                            <mxPoint x="620" y="680"/>
                        </Array>
                        <mxPoint as="offset"/>
                    </mxGeometry>
                </mxCell>
                <mxCell id="43" value="&lt;font style=&quot;font-size: 14px&quot;&gt;Candidate②&lt;/font&gt;" style="html=1;verticalAlign=bottom;startArrow=oval;startFill=1;endArrow=block;startSize=8;" parent="1" edge="1">
                    <mxGeometry width="60" relative="1" as="geometry">
                        <mxPoint x="380" y="741" as="sourcePoint"/>
                        <mxPoint x="550" y="741" as="targetPoint"/>
                        <mxPoint as="offset"/>
                    </mxGeometry>
                </mxCell>
                <mxCell id="44" value="&lt;font style=&quot;font-size: 14px&quot;&gt;Candidate①&lt;/font&gt;" style="html=1;verticalAlign=bottom;startArrow=oval;startFill=1;endArrow=block;startSize=8;" parent="1" edge="1">
                    <mxGeometry x="-0.5" width="60" relative="1" as="geometry">
                        <mxPoint x="200" y="826" as="sourcePoint"/>
                        <mxPoint x="560" y="826" as="targetPoint"/>
                        <mxPoint as="offset"/>
                    </mxGeometry>
                </mxCell>
                <mxCell id="45" value="&lt;font style=&quot;font-size: 14px&quot;&gt;Candidate②&lt;/font&gt;" style="html=1;verticalAlign=bottom;startArrow=oval;startFill=1;endArrow=block;startSize=8;" parent="1" edge="1">
                    <mxGeometry x="0.4937" width="60" relative="1" as="geometry">
                        <mxPoint x="555.5" y="767" as="sourcePoint"/>
                        <mxPoint x="200" y="767" as="targetPoint"/>
                        <Array as="points">
                            <mxPoint x="480" y="767"/>
                        </Array>
                        <mxPoint x="1" as="offset"/>
                    </mxGeometry>
                </mxCell>
                <mxCell id="46" value="&lt;font style=&quot;font-size: 14px&quot;&gt;Candidate①&lt;/font&gt;" style="html=1;verticalAlign=bottom;startArrow=oval;startFill=1;endArrow=block;startSize=8;" parent="1" edge="1">
                    <mxGeometry x="-0.1034" width="60" relative="1" as="geometry">
                        <mxPoint x="550" y="859" as="sourcePoint"/>
                        <mxPoint x="371.5" y="859" as="targetPoint"/>
                        <mxPoint as="offset"/>
                    </mxGeometry>
                </mxCell>
                <mxCell id="48" value="" style="endArrow=none;dashed=1;html=1;" parent="1" edge="1">
                    <mxGeometry width="50" height="50" relative="1" as="geometry">
                        <mxPoint x="130" y="798" as="sourcePoint"/>
                        <mxPoint x="800" y="798" as="targetPoint"/>
                    </mxGeometry>
                </mxCell>
                <mxCell id="49" value="N回" style="text;html=1;align=center;verticalAlign=middle;resizable=0;points=[];autosize=1;strokeColor=none;" parent="1" vertex="1">
                    <mxGeometry x="120" y="720" width="40" height="20" as="geometry"/>
                </mxCell>
                <mxCell id="50" value="N回" style="text;html=1;align=center;verticalAlign=middle;resizable=0;points=[];autosize=1;strokeColor=none;" parent="1" vertex="1">
                    <mxGeometry x="120" y="810" width="40" height="20" as="geometry"/>
                </mxCell>
                <mxCell id="51" value="" style="shape=flexArrow;endArrow=classic;startArrow=classic;html=1;fillColor=#000000;width=4;startSize=6.09;" parent="1" edge="1">
                    <mxGeometry width="100" height="100" relative="1" as="geometry">
                        <mxPoint x="371.5" y="932" as="sourcePoint"/>
                        <mxPoint x="194.5" y="932" as="targetPoint"/>
                        <Array as="points"/>
                    </mxGeometry>
                </mxCell>
                <mxCell id="52" value="WebRTC (UDP)" style="edgeLabel;html=1;align=center;verticalAlign=middle;resizable=0;points=[];fontSize=14;" parent="51" vertex="1" connectable="0">
                    <mxGeometry x="0.4261" y="-9" relative="1" as="geometry">
                        <mxPoint x="35" y="-11" as="offset"/>
                    </mxGeometry>
                </mxCell>
                <mxCell id="55" value="&lt;font style=&quot;font-size: 14px&quot;&gt;SDP①&lt;/font&gt;" style="html=1;verticalAlign=bottom;startArrow=oval;startFill=1;endArrow=block;startSize=8;" parent="1" source="7" target="6" edge="1">
                    <mxGeometry x="0.038" width="60" relative="1" as="geometry">
                        <mxPoint x="395" y="600" as="sourcePoint"/>
                        <mxPoint x="250" y="600" as="targetPoint"/>
                        <Array as="points">
                            <mxPoint x="410" y="600"/>
                        </Array>
                        <mxPoint as="offset"/>
                    </mxGeometry>
                </mxCell>
            </root>
        </mxGraphModel>
    </diagram>
</mxfile>